<?xml version="1.0" encoding="UTF-8" standalone="no"?>
<!DOCTYPE svg PUBLIC "-//W3C//DTD SVG 1.1//EN" "http://www.w3.org/Graphics/SVG/1.1/DTD/svg11.dtd">
<svg width="100%" height="100%" viewBox="0 0 800 800" version="1.1" xmlns="http://www.w3.org/2000/svg" xmlns:xlink="http://www.w3.org/1999/xlink" xml:space="preserve" xmlns:serif="http://www.serif.com/" style="fill-rule:evenodd;clip-rule:evenodd;stroke-linejoin:round;stroke-miterlimit:2;">
    <path d="M633.333,300C633.333,348.333 619,392.667 594.333,429.667C558.333,483 501.333,520.667 435,530.333C423.667,532.333 412,533.333 400,533.333C388,533.333 376.333,532.333 365,530.333C298.667,520.667 241.667,483 205.667,429.667C181,392.667 166.667,348.333 166.667,300C166.667,171 271,66.667 400,66.667C529,66.667 633.333,171 633.333,300Z" style="fill:rgb(172,142,63);fill-rule:nonzero;"/>
    <path d="M708.303,615.663L653.303,628.663C640.97,631.663 631.303,640.997 628.637,653.33L616.97,702.33C610.637,728.997 576.637,736.997 558.97,715.997L399.97,533.33L240.97,716.33C223.303,737.33 189.303,729.33 182.97,702.663L171.303,653.663C168.303,641.33 158.637,631.663 146.637,628.997L91.637,615.997C66.303,609.997 57.303,578.33 75.637,559.997L205.637,429.997C241.637,483.33 298.637,520.997 364.97,530.663C376.303,532.663 387.97,533.663 399.97,533.663C411.97,533.663 423.637,532.663 434.97,530.663C501.303,520.997 558.303,483.33 594.303,429.997L724.303,559.997C742.637,577.997 733.637,609.663 708.303,615.663Z" style="fill:rgb(111,91,41);fill-rule:nonzero;"/>
    <path d="M419.333,199.333L439,238.666C441.667,244 448.667,249.333 455,250.333L490.667,256.333C513.333,260 518.667,276.667 502.333,293L474.667,320.666C470,325.333 467.333,334.333 469,341L477,375.333C483.333,402.333 469,413 445,398.667L411.667,379C405.667,375.333 395.667,375.333 389.667,379L356.333,398.667C332.332,412.667 317.999,402.333 324.332,375.333L332.332,341C333.667,334.667 331.332,325.333 326.666,320.666L298.999,293C282.666,276.667 287.999,260.333 310.666,256.333L346.333,250.333C352.333,249.333 359.333,244 362,238.666L381.667,199.333C391.333,178 408.667,178 419.333,199.333Z" style="fill:white;fill-rule:nonzero;"/>
</svg>
