<svg width="235" height="53" viewBox="0 0 235 53" fill="none" xmlns="http://www.w3.org/2000/svg">
<g clip-path="url(#clip0_4_53)">
<path fill-rule="evenodd" clip-rule="evenodd" d="M15.2355 52.7785H15.1587C13.9183 52.7785 12.8045 52.0184 12.3515 50.8628L0.208115 19.8822C-0.259207 18.6901 0.0762412 17.3327 1.04493 16.4958C2.01348 15.659 3.40432 15.525 4.51453 16.1619L24.4542 27.5977L35.9324 7.51924C36.1997 7.05087 36.5843 6.66607 37.0523 6.39849C37.5253 6.12769 38.041 5.99933 38.5497 6C39.0586 5.99933 39.5743 6.12769 40.0472 6.39849C40.5151 6.66607 40.8997 7.05087 41.1671 7.51924L52.6453 27.5977L72.5849 16.1619C73.6951 15.525 75.0859 15.659 76.0546 16.4958C77.0231 17.3327 77.3586 18.6901 76.8913 19.8822L64.7479 50.8628C64.2949 52.0184 63.1811 52.7785 61.9407 52.7785H61.8639C61.8513 52.7785 61.8386 52.7785 61.8259 52.7785H15.2735C15.2608 52.7785 15.2482 52.7785 15.2355 52.7785ZM21.4593 32.8365L8.95254 25.6636L15.7077 42.8975L21.4593 32.8365ZM38.5497 15.0949L29.6867 30.5986L38.5497 35.6818L47.4127 30.5986L38.5497 15.0949ZM61.3918 42.8975L68.147 25.6636L55.6401 32.8365L61.3918 42.8975ZM20.4575 46.7428H56.6419L50.4076 35.8374L38.5497 42.6382L26.6917 35.8374L20.4575 46.7428Z" fill="#F79A2A"/>
<path d="M93.8575 22.3568C94.7706 22.6691 95.7727 22.9132 96.8614 23.089C97.9514 23.266 99.0355 23.3539 100.115 23.3539C101.589 23.3539 102.683 23.2868 103.399 23.1514C104.115 23.0161 104.587 22.8033 104.816 22.5129C105.043 22.2226 105.158 21.8478 105.158 21.3909C105.158 20.9965 105.074 20.6853 104.909 20.4563C104.743 20.2284 104.421 20.0468 103.944 19.9115C103.467 19.7762 102.761 19.6674 101.827 19.5842L99.7729 19.3979C98.2368 19.2522 97.0279 18.9306 96.146 18.4321C95.2641 17.9335 94.6412 17.2638 94.2782 16.4229C93.9153 15.5808 93.7339 14.5686 93.7339 13.3853C93.7339 11.973 94.0194 10.8301 94.5892 9.95799C95.1601 9.08583 96.0894 8.44732 97.3758 8.04247C98.6622 7.63762 100.374 7.43404 102.512 7.43404C105.293 7.43404 107.586 7.79841 109.391 8.52483L109.298 12.7619L109.204 12.8868C107.15 12.1592 105.002 11.796 102.761 11.796C101.682 11.796 100.851 11.8527 100.271 11.9672C99.6896 12.0817 99.2851 12.2633 99.0563 12.5132C98.8286 12.7619 98.7142 13.1146 98.7142 13.5715C98.7142 14.0284 98.7916 14.372 98.9476 14.5999C99.1037 14.8289 99.4192 15.0001 99.8966 15.1135C100.374 15.228 101.07 15.3367 101.983 15.4408L103.944 15.6594C105.604 15.8457 106.88 16.1788 107.772 16.6565C108.664 17.1342 109.283 17.7727 109.625 18.572C109.967 19.3713 110.138 20.3429 110.138 21.4846C110.138 22.8761 109.842 24.034 109.252 24.9582C108.66 25.8824 107.7 26.573 106.371 27.0299C105.043 27.4868 103.269 27.7158 101.049 27.7158C99.596 27.7158 98.2889 27.6372 97.1261 27.4822C95.9646 27.326 94.833 27.1132 93.7339 26.8437V22.4505L93.8575 22.3568Z" fill="white"/>
<path d="M112.629 17.5599C112.629 15.0464 112.914 13.0522 113.485 11.5785C114.055 10.1037 115.041 9.04418 116.442 8.39989C117.842 7.75676 119.798 7.43403 122.31 7.43403C124.198 7.43403 125.765 7.61102 127.01 7.96381C128.255 8.31777 129.241 8.88802 129.968 9.67805C130.694 10.4669 131.207 11.5103 131.509 12.8081C131.809 14.1071 131.959 15.6907 131.959 17.5599C131.959 19.45 131.809 21.0439 131.509 22.3417C131.207 23.6396 130.694 24.6829 129.968 25.473C129.241 26.2618 128.255 26.8333 127.01 27.186C125.765 27.5388 124.198 27.7158 122.31 27.7158C120.421 27.7158 118.854 27.5388 117.609 27.186C116.364 26.8333 115.378 26.2618 114.653 25.473C113.926 24.6829 113.407 23.6396 113.096 22.3417C112.785 21.0439 112.629 19.45 112.629 17.5599ZM122.31 23.3539C123.638 23.3539 124.634 23.1884 125.298 22.8553C125.962 22.5233 126.408 21.9369 126.637 21.096C126.865 20.2539 126.979 19.0752 126.979 17.5599C126.979 16.0643 126.865 14.9006 126.637 14.0701C126.408 13.2396 125.962 12.6531 125.298 12.3096C124.634 11.9672 123.638 11.796 122.31 11.796C121.002 11.796 120.011 11.9672 119.337 12.3096C118.662 12.6531 118.205 13.2396 117.967 14.0701C117.728 14.9006 117.609 16.0643 117.609 17.5599C117.609 19.0752 117.728 20.2539 117.967 21.096C118.205 21.9369 118.662 22.5233 119.337 22.8553C120.011 23.1884 121.002 23.3539 122.31 23.3539ZM127.882 1.85752L124.084 6.18826H120.1L123.275 1.64008H127.882V1.85752Z" fill="white"/>
<path d="M149.765 23.1676V27.0924C148.769 27.3006 147.794 27.4556 146.839 27.5597C145.884 27.6638 144.754 27.7158 143.446 27.7158C141.765 27.7158 140.349 27.5701 139.197 27.2798C138.046 26.9883 137.122 26.4747 136.426 25.7378C135.732 24.9999 135.228 23.9565 134.917 22.6066C134.606 21.2567 134.45 19.5217 134.45 17.4037C134.45 15.3679 134.606 13.6965 134.917 12.3882C135.228 11.08 135.732 10.0667 136.426 9.35072C137.122 8.63356 138.046 8.13502 139.197 7.8551C140.349 7.57517 141.765 7.43404 143.446 7.43404C144.754 7.43404 145.884 7.48147 146.839 7.57517C147.794 7.6677 148.769 7.82963 149.765 8.05751V12.1072L149.672 12.1696C148.8 11.9626 147.96 11.8122 147.15 11.7185C146.341 11.6248 145.344 11.5785 144.162 11.5785C143.207 11.5785 142.424 11.6456 141.811 11.781C141.2 11.9152 140.717 12.18 140.364 12.5745C140.012 12.9701 139.768 13.5507 139.633 14.3199C139.497 15.088 139.43 16.1163 139.43 17.4037C139.43 18.7536 139.497 19.8386 139.633 20.6587C139.768 21.48 140.012 22.0977 140.364 22.5129C140.717 22.9282 141.2 23.2081 141.811 23.3539C142.424 23.4996 143.207 23.5725 144.162 23.5725C145.324 23.5725 146.315 23.5355 147.135 23.4626C147.954 23.3909 148.779 23.2498 149.609 23.0427L149.765 23.1676Z" fill="white"/>
<path d="M157.391 7.71513H152.411V27.4347H157.391V7.71513Z" fill="white"/>
<path d="M160.505 17.5599C160.505 15.0464 160.79 13.0522 161.36 11.5785C161.931 10.1037 162.917 9.04419 164.318 8.3999C165.719 7.75677 167.674 7.43404 170.186 7.43404C172.074 7.43404 173.641 7.61102 174.886 7.96382C176.131 8.31777 177.117 8.88803 177.843 9.67806C178.57 10.4669 179.083 11.5103 179.384 12.8081C179.685 14.1071 179.836 15.6907 179.836 17.5599C179.836 19.45 179.685 21.0439 179.384 22.3417C179.083 23.6396 178.57 24.6829 177.843 25.473C177.117 26.2618 176.131 26.8333 174.886 27.1861C173.641 27.5388 172.074 27.7158 170.186 27.7158C168.297 27.7158 166.73 27.5388 165.485 27.1861C164.241 26.8333 163.255 26.2618 162.528 25.473C161.802 24.6829 161.283 23.6396 160.972 22.3417C160.66 21.0439 160.505 19.45 160.505 17.5599ZM170.186 23.3539C171.514 23.3539 172.51 23.1885 173.174 22.8553C173.838 22.5233 174.284 21.9369 174.512 21.096C174.741 20.2539 174.855 19.0752 174.855 17.5599C174.855 16.0643 174.741 14.9006 174.512 14.0701C174.284 13.2396 173.838 12.6531 173.174 12.3096C172.51 11.9672 171.514 11.796 170.186 11.796C168.879 11.796 167.887 11.9672 167.213 12.3096C166.538 12.6531 166.082 13.2396 165.844 14.0701C165.604 14.9006 165.485 16.0643 165.485 17.5599C165.485 19.0752 165.604 20.2539 165.844 21.096C166.082 21.9369 166.538 22.5233 167.213 22.8553C167.887 23.1885 168.879 23.3539 170.186 23.3539Z" fill="white"/>
<path d="M109.049 48.008V51.9339C108.053 52.1409 107.077 52.2971 106.123 52.4012C105.168 52.5053 104.037 52.5574 102.729 52.5574C101.049 52.5574 99.6319 52.4116 98.4807 52.1213C97.3284 51.8298 96.4049 51.3162 95.7103 50.5782C95.0145 49.8414 94.5117 48.7981 94.2008 47.4482C93.8888 46.0983 93.7339 44.3632 93.7339 42.2453C93.7339 40.2095 93.8888 38.538 94.2008 37.2298C94.5117 35.9204 95.0145 34.9083 95.7103 34.1923C96.4049 33.4751 97.3284 32.9766 98.4807 32.6966C99.6319 32.4156 101.049 32.2756 102.729 32.2756C104.037 32.2756 105.168 32.323 106.123 32.4156C107.077 32.5092 108.053 32.67 109.049 32.8991V36.9487L108.956 37.0112C108.084 36.8041 107.244 36.6526 106.434 36.5601C105.625 36.4664 104.628 36.4189 103.446 36.4189C102.491 36.4189 101.708 36.4872 101.095 36.6214C100.484 36.7567 100.001 37.0216 99.648 37.416C99.2955 37.8105 99.0516 38.3923 98.9164 39.1603C98.7812 39.9295 98.7142 40.9579 98.7142 42.2453C98.7142 43.5952 98.7812 44.6802 98.9164 45.5003C99.0516 46.3216 99.2955 46.9392 99.648 47.3545C100.001 47.7698 100.484 48.0497 101.095 48.1954C101.708 48.3412 102.491 48.414 103.446 48.414C104.608 48.414 105.599 48.377 106.419 48.3041C107.238 48.2313 108.063 48.0913 108.893 47.8843L109.049 48.008Z" fill="white"/>
<path d="M129.749 52.1826V52.2763H124.457C124.313 51.7778 124.142 51.2063 123.944 50.5632C123.746 49.9189 123.534 49.2341 123.306 48.5066H116.582C116.167 49.9606 115.783 51.2168 115.43 52.2763H110.138V52.2138L116.52 32.5567H123.368L129.749 52.1826ZM119.881 36.1078C119.674 37.1673 119.373 38.4547 118.979 39.9712C118.584 41.4865 118.17 43.0342 117.734 44.6131H122.185C121.728 43.0342 121.303 41.4865 120.909 39.9712C120.515 38.4547 120.214 37.1673 120.006 36.1078H119.881Z" fill="white"/>
<path d="M140.925 51.2792C140.572 50.1584 140.214 48.9635 139.851 47.6969C139.487 46.4303 139.13 45.1741 138.777 43.9271C138.424 42.6814 138.102 41.5177 137.812 40.4385C137.521 39.3581 137.272 38.4235 137.064 37.6346C136.858 36.8446 136.712 36.2848 136.629 35.9516L136.504 35.9829C136.566 36.3576 136.618 36.8504 136.66 37.4634C136.702 38.0753 136.733 38.7196 136.754 39.394C136.774 40.0695 136.785 40.6872 136.785 41.2482V52.2763H132.022V32.5567H140.364C140.654 33.6567 140.961 34.8146 141.283 36.0303C141.604 37.2448 141.926 38.4489 142.248 39.6438C142.569 40.8376 142.855 41.97 143.103 43.0399C143.353 44.1087 143.529 45.0387 143.633 45.8276H143.695C143.799 45.0387 143.97 44.1145 144.208 43.055C144.448 41.9954 144.723 40.8642 145.034 39.6589C145.345 38.4547 145.667 37.2448 145.999 36.0303C146.33 34.8146 146.632 33.6567 146.901 32.5567H155.119V52.2763H150.418V41.2482C150.418 40.6872 150.429 40.0695 150.45 39.394C150.47 38.7196 150.507 38.0753 150.559 37.4634C150.61 36.8504 150.658 36.3576 150.699 35.9829L150.574 35.9516C150.491 36.2848 150.347 36.8446 150.139 37.6346C149.931 38.4235 149.678 39.3639 149.376 40.4535C149.075 41.5443 148.748 42.7126 148.396 43.9584C148.043 45.2042 147.685 46.4557 147.322 47.7131C146.958 48.9693 146.611 50.1584 146.278 51.2792H140.925Z" fill="white"/>
<path d="M163.928 52.2763H158.948V32.5567H167.726C169.698 32.5567 171.275 32.795 172.458 33.2727C173.641 33.7504 174.491 34.5289 175.01 35.6092C175.529 36.6896 175.789 38.154 175.789 40.0024C175.789 41.7468 175.529 43.1637 175.01 44.2545C174.491 45.3453 173.641 46.1492 172.458 46.6686C171.275 47.1879 169.698 47.4482 167.726 47.4482H163.928V52.2763ZM166.917 36.6375H163.928V43.3661H166.917C168.391 43.3661 169.377 43.1175 169.874 42.6189C170.372 42.1204 170.622 41.2482 170.622 40.0024C170.622 38.818 170.372 37.962 169.874 37.4322C169.377 36.9024 168.391 36.6375 166.917 36.6375Z" fill="white"/>
<path d="M178.435 52.2763V32.5567H193.065V36.6063H183.415V40.3448H191.789V44.3945H183.415V48.2266H193.065V52.2763H178.435Z" fill="white"/>
<path d="M213.61 52.1826V52.2763H208.319C208.173 51.7778 208.002 51.2063 207.805 50.5632C207.608 49.9189 207.395 49.2341 207.167 48.5066H200.443C200.027 49.9606 199.644 51.2168 199.291 52.2763H193.999V52.2138L200.381 32.5567H207.229L213.61 52.1826ZM203.742 36.1078C203.535 37.1673 203.233 38.4548 202.839 39.9712C202.445 41.4865 202.03 43.0342 201.594 44.6131H206.045C205.589 43.0342 205.164 41.4865 204.769 39.9712C204.375 38.4548 204.075 37.1673 203.867 36.1078H203.742ZM206.731 31.3097C206.233 31.3097 205.667 31.186 205.034 30.9361C204.401 30.6874 203.789 30.4434 203.198 30.2039C202.606 29.9656 202.082 29.8465 201.626 29.8465C201.065 29.8465 200.785 30.1264 200.785 30.6874C200.785 30.7291 200.79 30.7811 200.8 30.8424C200.811 30.9049 200.817 30.9673 200.817 31.0298H198.17C198.17 31.0298 198.155 30.869 198.124 30.5475C198.092 30.2247 198.077 29.9286 198.077 29.6591C198.077 28.7453 198.332 28.0802 198.839 27.6649C199.348 27.2497 200.017 27.0426 200.848 27.0426C201.367 27.0426 201.937 27.1618 202.56 27.4C203.183 27.6395 203.794 27.8836 204.396 28.1323C204.998 28.3821 205.528 28.5059 205.984 28.5059C206.212 28.5059 206.404 28.4446 206.56 28.3196C206.715 28.1947 206.793 27.9772 206.793 27.6649V27.5099C206.793 27.4475 206.783 27.385 206.762 27.3225H209.439C209.439 27.3225 209.455 27.4787 209.485 27.7899C209.516 28.101 209.532 28.4029 209.532 28.6933C209.532 29.6071 209.278 30.2722 208.77 30.6874C208.261 31.1027 207.581 31.3097 206.731 31.3097Z" fill="white"/>
<path d="M215.167 42.4003C215.167 39.8879 215.452 37.8937 216.022 36.4189C216.593 34.9453 217.579 33.8857 218.98 33.2414C220.381 32.5983 222.336 32.2756 224.848 32.2756C226.736 32.2756 228.302 32.4526 229.548 32.8054C230.793 33.1582 231.779 33.7296 232.505 34.5185C233.232 35.3085 233.745 36.3518 234.047 37.6497C234.347 38.9475 234.497 40.5322 234.497 42.4003C234.497 44.2904 234.347 45.8843 234.047 47.1833C233.745 48.4811 233.232 49.5245 232.505 50.3133C231.779 51.1034 230.793 51.6737 229.548 52.0276C228.302 52.3804 226.736 52.5574 224.848 52.5574C222.959 52.5574 221.392 52.3804 220.147 52.0276C218.902 51.6737 217.916 51.1034 217.19 50.3133C216.464 49.5245 215.945 48.4811 215.634 47.1833C215.322 45.8843 215.167 44.2904 215.167 42.4003ZM224.848 48.1954C226.176 48.1954 227.172 48.0288 227.836 47.6969C228.5 47.3649 228.946 46.7784 229.175 45.9363C229.403 45.0954 229.517 43.9168 229.517 42.4003C229.517 40.9058 229.403 39.7422 229.175 38.9116C228.946 38.0811 228.5 37.4947 227.836 37.1511C227.172 36.8087 226.176 36.6375 224.848 36.6375C223.541 36.6375 222.549 36.8087 221.875 37.1511C221.2 37.4947 220.744 38.0811 220.505 38.9116C220.266 39.7422 220.147 40.9058 220.147 42.4003C220.147 43.9168 220.266 45.0954 220.505 45.9363C220.744 46.7784 221.2 47.3649 221.875 47.6969C222.549 48.0288 223.541 48.1954 224.848 48.1954Z" fill="white"/>
</g>
<defs>
<clipPath id="clip0_4_53">
<rect width="235" height="53" fill="white"/>
</clipPath>
</defs>
</svg>
